<?xml version="1.0" encoding="utf-8"?>
<svg version="1.1" xmlns:xlink="http://www.w3.org/1999/xlink" width="14px" height="14px" xmlns="http://www.w3.org/2000/svg">
  <g transform="matrix(1 0 0 1 -1031 -684 )">
    <path d="M 1038 687  C 1040.24 687  1042 688.76  1042 691  C 1042 693.24  1040.24 695  1038 695  C 1035.76 695  1034 693.24  1034 691  C 1034 688.76  1035.76 687  1038 687  Z " fill-rule="nonzero" fill="#09ca11" stroke="none" fill-opacity="0" />
    <path d="M 1038 686  C 1040.8 686  1043 688.2  1043 691  C 1043 693.8  1040.8 696  1038 696  C 1035.2 696  1033 693.8  1033 691  C 1033 688.2  1035.2 686  1038 686  Z " stroke-width="4" stroke="#2e99ff" fill="none" />
  </g>
</svg>